<svg width="125" height="50" viewBox="0 0 125 50" fill="none" xmlns="http://www.w3.org/2000/svg">
<path d="M103.948 26.6963C103.847 32.2729 105.052 35.2266 109.649 35.2266C114.238 35.2266 114.897 30.195 114.897 26.3661C114.897 22.5347 114.026 18.8153 109.204 18.8153C106.246 18.8153 104.062 21.1138 103.948 26.6963ZM94.6481 50V12.2516H104.062V13.7827C104.062 15.8252 104.886 14.983 105.549 14.187C105.661 14.054 107.759 11.4859 112.484 11.4859C117.195 11.4859 124.523 14.7674 124.523 26.3662C124.523 35.3379 120.151 41.9016 112.6 41.9016C108.439 41.9016 106.034 40.2634 105.484 39.6023C104.933 38.9503 104.168 38.8366 104.168 39.6023V49.9999L94.6481 50ZM21.8868 0H32.063V26.6963C32.063 31.2884 30.0913 40.9195 15.9791 40.9195C1.86533 40.9195 0.334167 31.9428 0.334167 26.9136V21.9906H10.1819V26.8024C10.1819 29.7562 12.1519 32.4902 15.8697 32.4902C19.5892 32.4902 21.8868 30.4123 21.8868 26.9136V0ZM53.3444 22.6468C53.3444 19.9085 51.8157 17.2831 48.3145 17.2831C44.9227 17.2831 43.7182 19.6879 43.7182 22.6468H53.3444ZM47.3331 11.1575C55.3246 11.1575 62.3238 14.2199 62.3238 28.3345H43.3972C43.3972 32.8204 45.2554 34.6809 48.5376 34.6809C51.8207 34.6809 52.914 32.053 52.914 32.053H62.2168C62.2168 36.1027 56.636 41.5732 48.2092 41.4645C38.5837 41.4645 33.8781 34.3525 33.8781 27.0215C33.8781 19.6879 38.0329 11.1575 47.3331 11.1575ZM83.601 22.6468C83.601 19.9085 82.0706 17.2831 78.5693 17.2831C75.1793 17.2831 73.9722 19.6879 73.9722 22.6468H83.601ZM77.5897 11.1575C85.5803 11.1575 92.5778 14.2199 92.5778 28.3345H73.6521C73.6521 32.8204 75.5118 34.6809 78.7967 34.6809C82.0764 34.6809 83.1714 32.053 83.1714 32.053H92.4741C92.4741 36.1027 86.8924 41.5732 78.4682 41.4645C68.8377 41.4645 64.1321 34.3525 64.1321 27.0215C64.1321 19.6879 68.2919 11.1575 77.5897 11.1575ZM118.292 45.4745C118.292 43.9795 119.509 42.765 121.009 42.765C122.504 42.765 123.719 43.9795 123.719 45.4745C123.719 46.967 122.504 48.1891 121.009 48.1891C119.509 48.1891 118.292 46.967 118.292 45.4745ZM117.979 45.4745C117.979 47.1473 119.333 48.505 121.009 48.505C122.674 48.505 124.036 47.1473 124.036 45.4745C124.036 43.8017 122.674 42.444 121.009 42.444C119.333 42.444 117.979 43.8017 117.979 45.4745Z" fill="white"/>
</svg>
