<svg width="112" height="50" viewBox="0 0 112 50" fill="none" xmlns="http://www.w3.org/2000/svg">
<path d="M23.7264 4.36459C24.4822 4.59404 25.1589 5.0043 25.7511 5.48311C23.9475 4.47406 22.9097 4.27115 22.8428 4.26009L22.8235 4.25788C22.5404 4.2153 22.3065 4.16444 22.0936 4.11081C22.4269 4.04227 22.7515 3.93656 23.0612 3.79565C23.0617 3.80117 23.0619 3.8067 23.0618 3.81224C23.1994 4.18877 23.5638 4.32091 23.7264 4.36459ZM15.0956 5.01314C15.0956 5.01314 15.173 4.78922 15.1929 4.73448C15.215 4.68085 15.4278 4.09643 15.9581 4.04169C15.9581 4.04169 16.2649 4.02289 16.7377 4.02289C16.7377 4.02289 16.5066 4.76655 15.5965 4.92689C15.5965 4.92689 15.2393 5.00817 15.0961 5.01314H15.0956ZM106.539 29.0566C106.352 29.7057 105.426 30.5716 104.3 31.0703C103.119 31.5994 100.653 31.7382 99.2295 31.5054C99.2257 31.5054 96.4678 31.2257 94.0516 28.7011C93.2897 27.9049 92.352 27.0009 91.4861 26.108C91.1057 25.7088 90.1686 24.7722 88.611 24.5643C86.9877 24.3459 83.0256 24.2381 81.535 23.7432C80.5398 23.4115 79.3378 22.737 77.7404 20.37C76.9708 19.2365 76.4245 18.9253 75.3779 18.2612C75.3779 18.2612 76.1802 18.8987 76.6352 19.7043C77.2909 20.8737 77.6221 21.7252 77.9793 22.3477C78.3365 22.9736 78.7412 23.5276 79.3494 24.0175C80.1069 24.6257 80.5807 24.7401 81.4007 24.8761C82.1874 25.0072 84.8397 24.9834 87.1149 24.9497C89.3541 24.9137 90.3527 25.6369 91.088 26.2567C91.7692 26.8295 92.9358 28.4689 93.6535 29.1888C94.5088 30.0397 95.1342 30.91 96.8261 31.7625C97.4121 32.0611 98.3742 32.7909 98.3244 33.4964C97.5647 34.2578 96.6209 34.4579 94.3568 33.8531C94.5171 34.0095 95.702 35.2541 97.7295 34.6658C97.118 35.1767 96.5186 35.394 95.8928 35.3603C93.7713 35.243 91.6918 32.6289 90.5268 31.663C89.6411 30.931 89.5388 30.7469 88.0349 29.7057C85.7503 28.1239 80.6244 28.5695 80.6244 28.5695L76.8624 28.7653C69.5365 29.3182 66.4596 22.8293 65.649 21.4747C65.3659 21.0047 65.1127 20.6254 64.8689 20.318C64.4951 19.8193 62.4936 17.2229 60.4694 16.3703C60.4694 16.3703 62.4582 18.0821 62.341 19.2139C62.341 19.2139 61.5161 18.8318 59.2746 19.1514C49.6237 20.527 46.3389 18.1119 46.3389 18.1119C46.7868 16.1773 45.4366 14.1919 45.4366 14.1919C46.1808 14.4285 50.9258 16.0319 55.432 15.1169C55.432 15.1169 48.0988 15.1556 42.9574 11.0547C42.9574 11.0547 46.157 15.0638 45.3979 17.6895C45.3979 17.6895 44.8726 20.4867 39.295 19.3582C38.6995 19.241 37.9984 19.0419 29.6496 16.7253C27.6868 16.1375 27.0095 17.0752 26.6551 17.6381C26.6401 18.4636 25.6676 19.4267 25.1772 19.7281C22.594 19.2631 23.623 16.8657 23.623 16.8657C21.9969 19.1918 23.7004 20.219 24.2389 20.292C23.9171 20.4485 23.6113 20.5613 23.3526 20.6569C23.3526 20.6569 21.2416 19.3996 22.4209 17.3395C24.0669 14.4672 25.7428 13.5455 28.8158 13.2646C30.1594 13.1364 31.2801 13.0407 32.1332 13.1579C34.3625 13.4659 35.7592 14.7243 39.0976 15.0489C32.0121 12.9617 31.9967 8.85747 31.9723 8.78006C31.9712 8.77896 31.9696 8.77122 31.9696 8.77122C31.577 10.1258 31.7926 11.2665 32.1388 12.2302C32.0403 12.1953 30.4911 11.1769 29.9006 10.8181C27.3562 9.2644 25.3486 8.99348 25.3486 8.99348C24.5043 8.88622 24.1117 7.86059 24.1117 7.86059C24.0824 7.80806 24.052 7.76051 24.0233 7.7113C22.8489 5.70703 21.6895 5.66722 21.6895 5.66722C22.1041 6.23118 22.2612 6.9483 22.3198 7.3956C22.3535 7.6527 22.3861 8.12321 22.3856 8.26476C22.364 10.4045 19.8853 11.079 19.8853 11.079C18.157 13.2718 18.2471 13.3177 17.8634 13.3741C17.4775 13.4283 16.6348 12.9987 16.6348 12.9987C16.569 12.9639 16.5519 12.8682 16.563 12.8057C16.584 12.673 16.6918 12.589 16.6918 12.589C16.8955 12.4271 17.0919 12.2562 17.2806 12.077C19.1063 10.2093 19.3253 9.29758 19.0997 8.08728C18.6385 5.65838 16.903 5.94146 16.903 5.94146C16.0576 6.02164 15.7176 6.71884 15.7176 6.71884C15.4278 7.16669 14.8136 8.53568 14.8136 8.53568C14.4365 9.35176 14.0517 9.53643 13.8526 9.57292C13.7528 9.58452 13.6522 9.58822 13.5519 9.58398C12.9652 9.56297 12.5185 9.02113 12.5185 9.02113C12.4934 8.99513 12.469 8.96839 12.4455 8.94096C11.9081 8.36428 12.2979 7.61123 12.2979 7.61123C13.0211 5.92488 14.4265 5.68049 14.6167 5.65617C14.8136 5.63129 15.4599 5.53729 15.4599 5.53729C17.2452 5.23707 18.0879 3.37821 18.0879 3.37821C16.8842 3.36328 16.2965 3.4429 16.2965 3.4429C15.1127 3.64969 14.7096 5.04466 14.7096 5.04245C13.7072 5.2719 13.7332 4.41048 13.909 4.14674C14.066 3.90402 14.6554 2.87065 18.5053 1.97937C18.5053 1.97937 20.404 1.40822 24.4617 1.59234L24.2947 1.90252C23.9359 2.58148 22.5127 3.98087 20.1607 3.46225C20.1607 3.46225 20.1811 4.50724 22.7322 4.88155C22.7322 4.88155 25.0395 5.29346 28.9524 8.43782C28.9524 8.43782 27.0808 4.72121 23.9049 3.75916C23.9049 3.75916 23.5091 3.67401 23.7031 3.42521C23.7031 3.42521 25.5797 1.662 28.1872 1.66366C28.1872 1.66366 36.3209 1.83783 41.4867 7.24244C41.4867 7.24244 41.26 6.30251 40.4472 4.97112L40.1061 4.41601C40.1061 4.41601 40.4157 4.45139 41.2649 4.59017C41.2649 4.59017 44.3695 4.9772 51.6634 7.49567C51.6634 7.49567 57.1277 9.29039 60.1184 10.4775C64.6129 12.2672 75.8738 16.6296 83.0522 20.5436C84.3344 21.2403 97.3187 28.0111 97.3187 28.0111C100.914 29.6261 103.403 28.6447 103.403 28.6447C104.212 28.3373 105.681 27.2088 106.322 27.8469C106.654 28.177 106.698 28.6215 106.539 29.0561V29.0566ZM17.734 6.95936C17.3586 6.69673 16.9389 6.64531 16.5585 6.70613C16.7266 6.58172 16.9931 6.56569 16.9931 6.56569C17.1689 6.54468 18.0011 6.51261 18.3864 7.81525C18.2217 7.44204 17.9972 7.14347 17.734 6.95936ZM11.5874 7.32538C12.4085 6.11452 13.4789 5.20279 13.4905 5.19339C13.5049 5.18067 13.5209 5.16961 13.5308 5.15579C13.5463 5.1392 13.5585 5.12262 13.5756 5.10714C13.6398 5.18233 13.7249 5.25918 13.8366 5.32277C13.2124 5.58816 11.5874 7.32538 11.5874 7.32538ZM23.1939 0.685026C37.1801 -0.143774 57.4926 8.69713 57.6906 8.7867L57.7038 8.79001L57.7154 8.79333C59.3325 9.43664 60.944 10.0935 62.55 10.7639C62.1923 10.6229 60.3484 9.89029 60.345 9.89029C57.376 8.7104 51.9166 6.91457 51.8696 6.89909C44.7117 4.43094 41.5829 3.99525 41.3601 3.9665C40.5125 3.82827 40.1896 3.79178 40.1768 3.79123L38.8869 3.6425L39.5985 4.79585C34.5461 1.22023 28.4973 1.04054 28.201 1.03335H28.1877C26.9691 1.03335 25.9042 1.37947 25.0793 1.77701C25.1738 1.6034 25.4918 1.00903 25.4918 1.00903L24.4905 0.965347C22.6996 0.884624 21.3151 0.947101 20.3138 1.04607C21.9134 0.750268 23.1607 0.684473 23.1945 0.684473L23.1939 0.685026ZM107.32 27.4792C106.793 26.3076 105.342 26.6886 105.342 26.6886C104.657 26.8312 103.875 27.6169 102.712 27.9608C100.216 28.7 98.2238 27.8402 98.2238 27.8402C94.3811 26.1799 82.0276 19.1072 75.7456 16.0175C75.7456 16.0175 68.5396 12.4043 57.9488 8.21057C57.9488 8.21057 37.4599 -0.791775 23.1552 0.0563766C23.1552 0.0563766 15.7397 0.385906 13.4203 3.75529C13.4203 3.75529 13.0244 4.2048 13.2494 4.69191C13.2494 4.69191 13.2936 4.83179 13.2002 4.92412C13.2002 4.92412 11.9534 6.04209 11.3192 7.0351C11.0964 7.39615 10.8487 8.00268 11.306 8.42731C11.306 8.42731 11.5122 8.5871 11.5984 8.72698C11.7792 9.02279 11.9473 9.4629 12.1718 9.72552C12.4947 10.112 13.1504 10.7805 14.0727 10.6196C14.4127 10.5604 14.4857 10.4321 14.4857 10.4321C14.9474 10.891 15.6966 10.8767 15.6966 10.8767C15.6026 10.5831 15.2819 10.0075 15.2354 9.65918C15.1857 9.27602 15.2974 8.90999 15.2974 8.90999C15.4278 8.47486 15.6866 7.92749 15.9719 7.65104C16.2207 7.40334 16.861 7.1197 17.3763 7.47577C17.7871 7.76715 18.2775 8.71593 17.8695 10.0705C17.8507 10.1728 17.4012 11.1338 16.9185 11.2797C16.9185 11.2797 16.8737 11.2941 16.7808 11.2941C16.4568 11.2941 15.8519 10.9546 15.8519 10.9546C15.8519 10.9546 15.8359 11.0409 15.9221 11.3914C15.9768 11.5903 16.0377 11.7874 16.1046 11.9825C16.1046 11.9825 15.9874 12.1926 15.9111 12.3148C15.795 12.5243 15.6966 12.923 15.9465 13.1054C15.9465 13.1054 17.0163 13.833 18.0547 13.8961C18.7701 13.9397 19.0405 13.4571 19.0405 13.4571C19.5663 12.7317 19.9639 12.113 20.519 11.6076C22.0367 10.2176 24.1681 9.84385 24.1681 9.84385C24.3091 9.82615 26.6368 9.1787 30.5928 12.343C29.4627 12.4336 28.118 12.7029 27.0908 12.8854C24.1604 13.4079 22.2794 16.1735 21.732 17.2981C20.3078 20.234 23.2193 21.2458 23.2193 21.2458C23.247 21.2187 25.9955 21.0025 27.323 18.0799C27.323 18.0799 27.809 16.7861 29.0989 17.2052C29.9426 17.4789 37.398 20.0847 39.0771 20.5265C39.0771 20.5265 44.0698 21.8258 45.9497 19.5301C48.9553 20.516 51.7751 20.9937 59.164 20.0399C60.4468 19.8729 61.4553 19.9111 61.4553 19.9111C63.1814 20.0405 64.7561 21.2016 65.2338 21.964C67.1761 25.0735 69.6415 31.2505 78.1982 30.4986L82.068 30.1481C84.4295 30.0076 86.3524 29.9153 88.3025 30.942C89.1518 31.3877 89.624 31.5513 91.0643 32.9264C93.0354 34.8018 94.8505 36.8315 97.2623 35.7241C98.1182 35.3299 99.0802 33.8 99.0802 33.8C98.9874 33.1022 98.6766 32.4304 97.9092 31.8582C100.101 32.3785 105.045 32.7157 106.959 29.3712C107.453 28.5916 107.506 27.8978 107.32 27.4792ZM21.2123 2.73132C21.3216 2.73496 21.4309 2.73772 21.5402 2.73961C22.0533 2.7479 22.6322 2.53669 23.017 2.357C23.2918 2.22818 23.4693 2.11649 23.446 2.11649C23.09 2.11317 22.5194 2.10764 22.3065 2.10764C21.3804 2.10764 20.8938 2.6329 20.89 2.681C20.8866 2.71086 21.0138 2.72358 21.2123 2.73132ZM71.9687 40.8661V45.2721C71.9687 46.4128 71.8432 47.314 71.2682 48.0676C70.3332 49.295 68.6181 49.9994 63.8344 49.9994L63.7846 50C59.0269 50 57.3035 49.2939 56.3691 48.0693C55.7941 47.3151 55.6703 46.4128 55.6703 45.2727V40.8672H58.9617V45.1472C58.9617 46.2961 59.1065 46.9712 59.5279 47.5634C60.2394 48.5669 61.4685 48.929 63.679 48.929H63.9588C66.2705 48.929 67.3979 48.5669 68.11 47.5634C68.5313 46.969 68.6762 46.2651 68.6762 45.1505V40.8661H71.9687ZM104.708 41.9813C105.942 41.9813 106.489 42.0957 106.865 42.3771C107.221 42.6442 107.348 43.0517 107.348 43.6864V43.8523C107.348 44.4251 107.212 44.8901 106.792 45.1815C106.379 45.4673 105.8 45.5298 104.749 45.5298H98.2232V41.9818L104.708 41.9813ZM106.309 46.5853C107.547 46.5438 108.595 46.3575 109.403 45.9218C110.242 45.4706 110.641 44.6181 110.641 43.7345C110.641 42.553 110.113 41.796 109.151 41.3736C108.297 40.9965 107.241 40.8672 105.137 40.8672H94.9318V49.7086H98.2232V46.6444H102.547L107.48 49.7086H111.49L106.309 46.5853ZM48.7617 48.526V45.6481H52.0377V49.707H42.5123C40.7264 49.707 39.3187 49.4996 38.2566 49.0711C36.4868 48.3579 35.6773 47.053 35.6773 45.2705C35.6773 43.5869 36.5587 42.4192 37.6805 41.7905C38.8731 41.1221 40.2166 40.8661 42.4542 40.8661H51.7026V42.0471H43.4793C41.7172 42.0471 40.7574 42.313 40.0253 42.9079C39.3751 43.436 39.029 44.2271 39.029 45.2865C39.029 46.3813 39.3928 47.1896 40.0878 47.7193C40.8215 48.2777 41.8101 48.526 43.5064 48.526H48.7617ZM14.3414 40.8666V45.1781C14.3414 46.5731 14.0207 47.4191 13.3583 48.0975C12.2017 49.2807 9.98287 49.7081 6.84349 49.7081H0.224152V48.5215H6.31824C8.1876 48.5215 9.45098 48.2119 10.2129 47.4589C10.7901 46.8894 11.0494 46.0949 11.0494 44.9144V40.8672L14.3414 40.8666ZM86.6963 47.8254H76.9437L75.3276 49.7081H73.419L81.0883 40.8672H84.3332L92.0092 49.7081H88.3186L86.6963 47.8254ZM77.924 46.6826H85.7127L81.8126 42.1549L77.924 46.6826ZM29.121 47.8254H19.3678L17.7517 49.7081H15.8436L23.5135 40.8672H26.7568L34.4338 49.7081H30.7432L29.121 47.8254ZM20.3492 46.6815H28.1369L24.2372 42.1538L20.3492 46.6815Z" fill="white"/>
</svg>
