<svg width="51" height="50" viewBox="0 0 51 50" fill="none" xmlns="http://www.w3.org/2000/svg">
<path d="M49.2144 1.02163L37.831 0.987061L37.6585 1.7806C37.6585 1.7806 40.3472 3.09114 41.1081 3.78097C41.869 4.47081 42.0022 4.60255 42.0022 4.60255L38.3917 8.14237C39.7362 9.23528 40.9626 10.4658 42.051 11.8139L45.4894 8.2311L48.5238 12.3025H49.2152L49.2144 1.02163Z" fill="white"/>
<path d="M45.8416 10.9671L43.2582 13.5267C45.3967 16.8935 46.5486 20.7923 46.5833 24.7807C46.7043 36.6208 37.2041 46.3173 25.3636 46.4383C13.5231 46.5593 3.82582 37.0594 3.70483 25.2189C3.58384 13.3784 13.0844 3.68232 24.9246 3.56172C29.1047 3.51261 33.2071 4.69249 36.7224 6.95482L39.3727 4.43861C35.2237 1.55405 30.3015 0 25.1481 0H24.8881C18.2106 0.0695213 11.9594 2.73399 7.28767 7.50369C2.61592 12.2734 0.0766658 18.5779 0.143498 25.2554C0.212636 31.8876 2.84638 38.1084 7.56115 42.7725C12.2759 47.4365 18.5152 50 25.1389 50H25.3989C39.1833 49.859 50.2833 38.5301 50.1423 24.7461C50.0916 19.7583 48.5887 15.0035 45.8405 10.9682" fill="white"/>
<path d="M11.7106 23.2379H12.594L11.1171 25.9673L9.62108 23.2402H10.6939V22.5588H6.25909V23.2383H7.27387L9.33647 26.9855H11.7244L13.7509 23.2379H14.7672V22.5588H11.7106V23.2379ZM26.703 26.2999H25.7573V23.2379H26.7771V22.5592H22.683V23.2379H23.7135V26.3014H22.683V26.9882H28.8285V24.936H28.1533C28.1533 25.721 27.5772 26.2999 26.703 26.2999ZM18.4092 22.4697C16.3765 22.4697 15.298 23.4841 15.298 24.7566C15.298 26.0468 16.3378 27.0754 18.4226 27.0754C20.5075 27.0754 21.5338 26.0468 21.5338 24.7566C21.5338 23.4841 20.4426 22.4697 18.4092 22.4697ZM18.3881 26.3794C17.6456 26.3659 17.3191 25.5451 17.3333 24.7301C17.3483 23.8851 17.7524 23.1491 18.4472 23.1614C19.142 23.1737 19.51 23.9239 19.495 24.7677C19.4808 25.5643 19.1524 26.3932 18.3877 26.3809M34.0872 23.2379H34.9706L33.4945 25.9673L31.9985 23.2402H33.0713V22.5588H28.6357V23.2383H29.6497L31.7123 26.9855H34.1002L36.1275 23.2379H37.1438V22.5588H34.0872V23.2379ZM40.7747 22.4497C38.7251 22.4497 37.6362 23.4726 37.6362 24.7543C37.6362 26.0552 38.6844 27.0923 40.7858 27.0923C42.8872 27.0923 43.9243 26.0552 43.9243 24.7543C43.9243 23.4714 42.8238 22.4497 40.7747 22.4497ZM40.752 26.3909C40.0034 26.3775 39.6765 25.5501 39.6888 24.7282C39.7038 23.8766 40.1113 23.1345 40.8123 23.1468C41.5133 23.1591 41.8836 23.915 41.8682 24.7666C41.8544 25.5693 41.5225 26.4051 40.752 26.3909Z" fill="white"/>
</svg>
