<svg width="151" height="30" viewBox="0 0 151 30" fill="none" xmlns="http://www.w3.org/2000/svg">
<path fill-rule="evenodd" clip-rule="evenodd" d="M23.094 2.89673C26.3291 4.98889 30.9768 11.5153 32.2255 15.1239C30.9777 18.7382 26.3291 25.2562 23.094 27.3577V2.89673Z" fill="white"/>
<path fill-rule="evenodd" clip-rule="evenodd" d="M16.1894 7.53321C17.8762 7.53321 20.0273 8.20346 21.7207 9.41288V2.05334C20.032 1.00304 17.9848 0.388034 15.5847 0.388034C7.44348 0.388034 0.857147 6.98654 0.857147 15.1249C0.857147 23.2736 7.44348 29.8468 15.5847 29.8468C17.9848 29.8468 20.032 29.2524 21.7207 28.2002V20.821C20.0273 22.0295 17.8762 22.7175 16.1894 22.7175C11.6063 22.7175 8.24009 19.3691 8.24009 15.1249C8.24009 10.8629 11.6063 7.53321 16.1894 7.53321ZM125.69 13.1554V28.1993H130.835V13.4474C130.838 12.4606 131.232 11.5151 131.93 10.8175C132.628 10.12 133.574 9.72706 134.561 9.7246H136.939V4.80825L134.303 4.80451C132.069 4.8214 129.927 5.69866 128.323 7.25391C126.719 8.80917 125.776 10.9228 125.69 13.1554ZM148.482 23.267C146.44 23.267 144.774 21.5811 144.773 19.5423V9.70026H150.466V4.78017H144.773V0.153076H139.599V19.8278C139.787 24.4802 143.59 28.1309 148.219 28.1852L150.857 28.1805V23.267H148.482ZM86.6124 4.3477C85.3516 4.35012 84.1071 4.63173 82.9681 5.17232C81.8292 5.7129 80.8241 6.49903 80.0251 7.47424C78.4347 5.51874 75.9812 4.3477 73.4172 4.3477C68.924 4.3477 65.203 7.85523 64.9625 12.3447L64.9578 28.2002H70.1437V12.9887C70.1437 10.8629 71.7416 9.21536 73.7795 9.21536C75.4598 9.21536 77.4377 10.3602 77.4377 13.5925V28.1993H82.6049V13.5804C82.6049 10.5802 84.4921 9.21536 86.2454 9.21536C88.4153 9.21536 89.9018 10.759 89.9018 12.9887V28.1993H95.0634V12.3578C94.7994 7.85429 91.1028 4.3477 86.6124 4.3477ZM110.236 4.40105C103.552 4.40105 98.3125 9.68997 98.3125 16.4766C98.3125 23.56 103.369 28.6879 110.33 28.6879C113.034 28.6879 115.46 27.6872 116.988 25.9985V28.1983L122.148 28.1965V16.5702C122.147 9.5093 117.121 4.40105 110.236 4.40105ZM117.281 16.5506C117.281 20.762 114.415 23.7276 110.306 23.7276C106.435 23.7276 103.302 20.4878 103.302 16.5506C103.302 12.6078 106.436 9.38012 110.306 9.38012C114.148 9.38012 117.281 12.6078 117.281 16.5506ZM52.9281 14.2075C47.9266 13.6272 46.9278 12.7295 46.9278 11.3637C46.9278 9.20507 50.1966 8.92611 51.6419 8.92611C54.1151 8.92611 56.5583 9.89871 58.3013 11.3918L61.5925 8.10516C60.2755 7.01836 57.1274 4.39451 50.8743 4.39451C44.7008 4.39451 41.3796 8.13887 41.3796 11.6754C41.3796 15.8616 44.6222 18.2468 51.3105 18.9722C54.1235 19.2793 56.2465 19.6696 56.2465 21.626C56.2465 25.2337 47.2039 24.8752 43.5775 20.8594L39.9904 24.4699C40.3274 24.8546 44.537 28.7357 50.8518 28.7357C58.3864 28.7357 61.805 25.039 61.805 21.5867C61.806 17.2517 58.9911 14.9059 52.9281 14.2075Z" fill="white"/>
</svg>
