<svg width="140" height="50" viewBox="0 0 140 50" fill="none" xmlns="http://www.w3.org/2000/svg">
<path d="M70.2858 0C31.9081 0 0.824707 11.1745 0.824707 25.0005C0.824707 38.8224 31.9102 50 70.2858 50C108.666 50 139.747 38.8219 139.747 25.0005C139.747 11.1739 108.667 0 70.2858 0Z" fill="white"/>
<path d="M70.6375 47.8074C33.6812 47.8074 3.72296 37.4841 3.72296 24.7486C3.72296 12.0115 33.6817 1.68872 70.6375 1.68872C107.59 1.68872 137.547 12.011 137.547 24.7486C137.547 37.4836 107.589 47.8074 70.6375 47.8074ZM70.6375 3.6866C34.9797 3.6866 6.07526 13.1147 6.07526 24.7486C6.07526 36.383 34.9786 45.8122 70.6375 45.8122C106.295 45.8122 135.194 36.3825 135.194 24.7486C135.194 13.1147 106.293 3.6866 70.6375 3.6866Z" fill="#02081C"/>
<path d="M53.1828 7.43135C52.2331 7.43434 51.2786 7.47129 50.3178 7.54992C43.9356 8.08181 37.8608 11.6398 37.8498 17.0417C37.8429 19.7809 39.8097 22.0005 42.8572 21.9029C46.4382 21.7826 49.3779 18.942 50.9169 15.3605C51.5007 14.0016 50.4194 13.4372 49.9048 14.2195C49.0086 15.5862 47.7601 16.6858 46.2912 17.4023C44.6062 18.2193 42.8053 17.9988 42.2592 16.6442C41.4915 14.7329 43.0872 11.873 46.7286 10.5272C51.9882 8.59921 57.4913 9.87461 62.7866 10.8596C62.8622 10.8596 63.1442 11.0145 62.8948 11.1432C61.9466 11.6551 61.013 12.0714 59.5585 13.3106C58.5157 14.1948 57.1506 15.372 56.0947 16.6542C55.0467 17.918 54.3038 19.0453 53.3209 20.2949C53.1838 20.4756 53.0151 20.4672 53.0172 20.4672C50.6214 20.8679 48.2759 21.1362 46.1284 22.6148C45.6842 22.9183 45.4914 23.457 45.7607 23.8692C46.0028 24.2346 46.5564 24.2734 46.9408 23.9967C48.2749 23.0086 49.6485 22.5434 51.2237 22.5003C51.2925 22.5045 51.3256 22.5156 51.345 22.5576C51.3571 22.5812 51.3497 22.631 51.3214 22.6677C48.9618 25.909 48.3709 26.6415 46.5956 28.6509C45.6878 29.6837 44.7947 30.5554 43.7971 31.4627C39.7667 35.1702 35.4316 35.1061 33.8764 32.7817C32.947 31.3866 33.0695 29.9221 33.6786 28.7071C34.4284 27.219 35.9436 26.1284 37.2037 25.4915C37.6716 25.2552 37.8061 24.6629 37.3378 24.1232C37.04 23.7714 36.318 23.7089 35.7803 23.8065C34.1295 24.1084 32.1788 25.3441 31.0263 26.8311C29.7273 28.4997 29.0784 30.5255 29.2963 32.799C29.6875 36.9014 33.0988 39.271 36.9717 39.2437C40.0535 39.2199 42.9562 38.2953 46.4491 34.7846C49.705 31.5103 52.6713 26.6194 55.4489 22.0838C55.5361 21.9389 55.5979 21.8612 56.0201 21.8092C57.7622 21.5934 60.3347 21.3478 61.9834 21.2533C62.3499 21.2333 62.4244 21.2374 62.5714 21.4185C63.0009 21.9551 63.6461 22.4106 64.1628 22.6878C64.4148 22.8233 64.5346 22.8909 64.7326 22.894C64.9767 22.8993 65.1667 22.7692 65.2896 22.6317C65.4645 22.4416 65.5127 22.193 65.4182 22.0328C65.3195 21.8648 64.1698 21.2339 64.1356 20.9787C64.1104 20.8196 64.2862 20.7812 64.2862 20.7812C65.1316 20.5186 66.011 19.9783 66.544 18.9676C67.0675 17.9726 67.1519 16.6447 66.1942 15.9064C65.3536 15.258 64.0835 15.3603 63.0701 16.2608C62.0788 17.135 61.7508 18.4069 61.8847 19.5216C61.9088 19.7149 61.8988 19.7799 61.6326 19.8019C60.1088 19.9227 58.6407 19.9646 57.0077 20.0502C56.8985 20.0581 56.8639 19.9866 56.9274 19.9115C58.8077 16.6771 61.6151 14.3739 64.7203 12.1056C64.9262 11.9528 64.8633 11.6622 64.8549 11.4197C70.4616 12.6257 75.8798 14.8705 81.6965 14.8227C84.1019 14.8033 86.4047 14.441 88.6057 13.2455C90.5416 12.2 91.3272 11.2329 91.385 10.228C91.4301 9.53331 90.9422 9.0942 90.2476 9.24385C84.3705 10.5807 78.7639 10.5659 72.9168 9.86547C66.2384 9.06284 59.8301 7.41052 53.1828 7.43135ZM64.9141 16.8051C65.0514 16.8123 65.1799 16.8579 65.2839 16.9462C65.5937 17.2082 65.4471 17.8619 65.1341 18.3145C64.7923 18.8138 64.2126 19.2449 63.6839 19.3499C63.5778 19.3693 63.486 19.3242 63.4424 19.0916C63.3563 18.4757 63.5586 17.6509 64.2233 17.0696C64.4313 16.8875 64.6852 16.7929 64.9141 16.8051ZM112.093 16.9231C111.025 16.9231 109.623 16.925 108.51 16.925C108.244 16.925 108.107 16.957 107.982 17.2012C107.571 17.9809 102.563 25.4123 101.63 26.8557C101.474 27.0752 101.282 27.0446 101.26 26.7942C101.165 25.9372 100.418 24.9523 99.2403 24.4808C98.3425 24.1201 97.4646 24.055 96.5525 24.1747C94.9054 24.3937 93.438 25.2548 92.1474 26.2246C90.2031 27.689 88.5258 29.5849 86.3599 30.9868C85.1775 31.7497 83.5587 32.4152 82.4755 31.4228C81.4952 30.5229 81.6054 28.5234 83.1056 26.9776C83.2636 26.8153 83.4532 26.9507 83.4233 27.0961C83.2815 27.7955 83.4559 28.4909 83.992 28.9787C84.6462 29.5588 85.5828 29.625 86.3841 29.2375C87.3302 28.7739 87.8859 27.8774 88.0487 26.8598C88.2991 25.282 87.072 23.8902 85.5378 23.7788C84.2907 23.6922 83.0953 24.1217 81.9307 25.0742C81.3463 25.5536 81.0138 25.9085 80.5092 26.6194C80.3858 26.7948 80.1968 26.8126 80.2031 26.5538C80.2614 24.5338 79.417 23.3972 77.7299 23.3599C76.4215 23.3294 75.0224 24.0318 73.9324 24.8929C72.7373 25.8433 71.6924 27.1024 70.5724 28.2859C70.4333 28.4319 70.3115 28.4251 70.2726 28.1421C70.2385 26.8037 69.8986 25.5073 69.2728 24.5869C69.0517 24.2666 68.5859 24.1079 68.1942 24.3242C68.0136 24.4224 67.3842 24.7087 66.9268 25.0736C66.6995 25.259 66.6116 25.5272 66.7114 25.8711C67.3152 27.87 67.1824 30.1436 66.3633 32.0642C65.6108 33.8222 64.1486 35.409 62.4306 35.9457C61.2985 36.3011 60.1213 36.1272 59.393 35.1333C58.3928 33.7618 58.7972 31.377 60.2873 29.396C61.6037 27.6527 63.506 26.5448 65.4052 25.8312C65.6289 25.7461 65.6744 25.6046 65.6114 25.4166C65.508 25.1068 65.3438 24.6865 65.276 24.4938C65.1022 24.0354 64.6144 23.9604 64.0195 24.0249C62.6401 24.184 61.3963 24.6518 60.1671 25.3035C56.9485 27.0099 55.3354 30.3126 54.6276 32.08C54.2874 32.928 53.9961 33.4583 53.6196 33.9278C53.1124 34.5594 52.4754 35.1339 51.3108 36.1467C51.2058 36.2396 51.1271 36.4333 51.2153 36.6129C51.3345 36.857 51.9398 37.7034 52.111 37.779C52.3005 37.8715 52.5204 37.7425 52.6086 37.6795C53.4235 37.1329 54.3986 36.2659 54.8759 35.6778C55.0428 35.4767 55.2153 35.5614 55.304 35.867C55.7493 37.4401 56.9153 38.7242 58.5277 39.2613C61.4786 40.2469 64.5397 38.8205 66.85 36.3375C68.3181 34.7596 68.848 33.7445 69.4109 33.0546C70.3644 31.8842 72.2462 29.2664 74.4867 27.5856C75.3084 26.9661 76.2814 26.4934 76.7708 26.8069C77.163 27.0589 77.2896 27.6443 76.6595 28.7784C74.3755 32.9091 71.0128 37.7624 70.3963 38.9401C70.284 39.1443 70.3821 39.3045 70.5979 39.3045C71.7935 39.2992 72.9792 39.3017 74.0645 39.3017C74.2446 39.2933 74.3261 39.212 74.4164 39.0855C76.1696 36.3683 77.8198 33.7809 79.5883 31.1067C79.688 30.9492 79.7789 31.0713 79.7826 31.1401C79.8193 31.7602 79.973 32.6093 80.3448 33.1669C81.0137 34.1971 81.961 34.6397 83.0122 34.6465C83.8481 34.6559 84.2707 34.53 85.1723 34.1966C85.803 33.9622 86.3998 33.645 86.9471 33.2535C87.2112 33.0723 87.2573 33.3761 87.2504 33.4228C86.8451 35.5803 87.3461 38.1361 89.5114 39.1962C92.1032 40.4616 94.9501 38.6833 96.5883 37.0782C96.7485 36.9233 96.9213 36.9396 96.9375 37.2724C96.9722 37.8857 97.2515 38.6131 97.764 39.1224C99.1365 40.4865 101.907 39.9461 104.687 37.8148C106.472 36.4512 108.34 34.5238 110.027 32.4829C110.089 32.4041 110.136 32.2765 110.015 32.1483C109.758 31.8821 109.386 31.5775 109.132 31.3428C109.016 31.2451 108.845 31.2731 108.747 31.3471C107.018 32.9753 105.461 34.8326 103.211 36.3684C102.452 36.8924 101.244 37.3156 100.7 36.5879C100.489 36.3054 100.513 35.9141 100.721 35.4011C101.378 33.7807 111.763 18.1243 112.302 17.2023L112.303 17.2012C112.395 17.0405 112.298 16.9231 112.093 16.9231ZM97.5412 26.7111C97.8132 26.7088 98.0678 26.7606 98.2996 26.871C99.5787 27.4753 99.1702 28.9418 98.5984 30.0933C98.5789 30.1294 98.5669 30.1689 98.5629 30.2097C98.559 30.2504 98.5632 30.2916 98.5753 30.3307C98.5963 30.4504 98.7536 30.5664 98.9085 30.6216C98.9626 30.6415 98.9933 30.6803 98.9319 30.8064C98.4898 31.7436 98.0844 32.2839 97.5304 33.0978C97.0222 33.8502 96.4487 34.4367 95.7535 35.0017C94.706 35.8602 93.2516 36.7942 92.0492 36.1663C91.5147 35.8911 91.2842 35.1512 91.2947 34.5521C91.3225 32.8666 92.0771 31.1371 93.4748 29.4369C94.8596 27.7492 96.3629 26.7215 97.5412 26.7111Z" fill="#02081C"/>
</svg>
