<svg width="58" height="50" viewBox="0 0 58 50" fill="none" xmlns="http://www.w3.org/2000/svg">
<g clip-path="url(#clip0_38_300)">
<path d="M35.9598 46.7222H40.2377C40.2408 46.7223 40.2437 46.7211 40.246 46.7191C40.2483 46.717 40.2498 46.7141 40.2501 46.7111V45.3443C40.2501 45.3427 40.2498 45.3411 40.2491 45.3396C40.2485 45.3381 40.2476 45.3367 40.2465 45.3355C40.2453 45.3344 40.2439 45.3335 40.2424 45.3328C40.2409 45.3322 40.2393 45.3319 40.2377 45.3319H35.9598C35.9583 45.3321 35.9568 45.332 35.9554 45.3315C35.954 45.3311 35.9527 45.3305 35.9515 45.3295C35.9504 45.3286 35.9494 45.3275 35.9487 45.3262C35.948 45.3249 35.9475 45.3234 35.9474 45.322V43.7838C35.9473 43.7809 35.9483 43.778 35.9501 43.7758C35.9519 43.7735 35.9545 43.7719 35.9573 43.7713H40.6787C40.6802 43.7717 40.6818 43.7718 40.6833 43.7714C40.6848 43.7711 40.6862 43.7704 40.6874 43.7695C40.6887 43.7685 40.6896 43.7673 40.6903 43.7659C40.6909 43.7645 40.6912 43.7629 40.6912 43.7614V42.2928C40.6913 42.2913 40.6912 42.2898 40.6908 42.2884C40.6904 42.287 40.6897 42.2857 40.6888 42.2845C40.6879 42.2833 40.6867 42.2824 40.6854 42.2817C40.6841 42.281 40.6827 42.2805 40.6812 42.2804H34.2526C34.2497 42.2804 34.2468 42.2815 34.2447 42.2836C34.2426 42.2857 34.2414 42.2886 34.2414 42.2915V49.8409C34.2417 49.8439 34.2429 49.8467 34.2449 49.849C34.2469 49.8512 34.2496 49.8528 34.2526 49.8533H40.7036C40.7069 49.8533 40.7101 49.852 40.7124 49.8497C40.7147 49.8473 40.716 49.8442 40.716 49.8409V48.3747C40.716 48.3714 40.7147 48.3683 40.7124 48.366C40.7101 48.3636 40.7069 48.3623 40.7036 48.3623H35.9598C35.9583 48.3625 35.9568 48.3624 35.9554 48.362C35.954 48.3616 35.9527 48.3609 35.9515 48.3599C35.9504 48.359 35.9494 48.3579 35.9487 48.3566C35.948 48.3553 35.9475 48.3539 35.9474 48.3524V46.7372C35.9466 46.7339 35.947 46.7304 35.9486 46.7274C35.9502 46.7244 35.9529 46.7221 35.9561 46.721L35.9598 46.7222ZM24.3264 42.5264C23.9065 42.3524 23.3623 42.2779 22.669 42.2779H18.3787C18.3754 42.2779 18.3722 42.2792 18.3699 42.2815C18.3675 42.2838 18.3662 42.287 18.3662 42.2903V49.8396C18.3667 49.8428 18.3682 49.8456 18.3704 49.8479C18.3727 49.8501 18.3755 49.8516 18.3787 49.8521H20.0858C20.0891 49.8521 20.0923 49.8507 20.0946 49.8484C20.097 49.8461 20.0983 49.8429 20.0983 49.8396V47.5299C20.0982 47.527 20.0992 47.5241 20.101 47.5218C20.1028 47.5196 20.1054 47.518 20.1082 47.5174H22.6652C23.6592 47.5174 24.3972 47.3186 24.8918 46.8962C25.3888 46.4986 25.6372 45.8289 25.6372 44.9082C25.6372 44.2385 25.5378 43.7167 25.3154 43.3439C25.1043 42.9534 24.7497 42.6603 24.3264 42.5264ZM23.6344 45.7792C23.4107 45.978 23.0653 46.0525 22.5708 46.0525H20.1094C20.1065 46.052 20.1038 46.0505 20.1017 46.0482C20.0997 46.046 20.0985 46.0431 20.0983 46.0401V43.7303C20.0985 43.7273 20.0997 43.7245 20.1017 43.7222C20.1038 43.72 20.1065 43.7185 20.1094 43.7179H22.5708C22.9435 43.7179 23.2132 43.7428 23.4107 43.8422C23.5874 43.918 23.7351 44.0487 23.8319 44.2149C23.9164 44.4193 23.9586 44.6386 23.9562 44.8598C23.9549 45.3071 23.8319 45.6053 23.6344 45.7792ZM7.61006 42.5761C6.9677 42.2779 6.12654 42.1288 5.13752 42.1288C4.12366 42.1288 3.30734 42.2779 2.66498 42.5761C2.04736 42.8332 1.53951 43.2988 1.22991 43.8919C0.909352 44.4684 0.760254 45.1828 0.760254 46.0525C0.760254 46.9459 0.909352 47.6678 1.22991 48.2368C1.54641 48.8235 2.05035 49.2872 2.66125 49.5539C3.30362 49.8521 4.11993 49.9999 5.13379 49.9999C6.14766 49.9999 6.96397 49.8521 7.60633 49.5539C8.22573 49.2896 8.73912 48.8261 9.06501 48.2368C9.38681 47.6665 9.53467 46.9459 9.53467 46.0525C9.53467 45.1828 9.38681 44.4634 9.06501 43.8919C8.74777 43.2974 8.23328 42.8322 7.61006 42.5761ZM7.48581 47.4218C7.40753 47.5982 7.2951 47.7575 7.155 47.8904C7.0149 48.0232 6.8499 48.127 6.6695 48.1958C6.29676 48.3698 5.77864 48.4692 5.13628 48.4692C4.61427 48.4814 4.09448 48.3972 3.60305 48.2207C3.24636 48.0569 2.95744 47.7746 2.7855 47.4218C2.61445 46.9967 2.52997 46.5417 2.537 46.0836C2.5296 45.6162 2.61403 45.1518 2.7855 44.7169C2.94566 44.3627 3.23896 44.0859 3.60181 43.9465C3.97456 43.7726 4.47155 43.6732 5.13504 43.6732C5.66493 43.6583 6.19295 43.7426 6.69187 43.9217C7.04549 44.079 7.32771 44.3625 7.48333 44.7169C7.65588 45.1424 7.74042 45.5984 7.73183 46.0575C7.7422 46.5252 7.65766 46.9901 7.48333 47.4242L7.48581 47.4218ZM52.665 48.3002V42.2928C52.6652 42.2911 52.665 42.2894 52.6644 42.2878C52.6639 42.2862 52.663 42.2848 52.6618 42.2836C52.6606 42.2824 52.6591 42.2815 52.6575 42.2809C52.6559 42.2803 52.6542 42.2802 52.6526 42.2804H50.9702C50.9669 42.2804 50.9638 42.2817 50.9614 42.284C50.9591 42.2863 50.9578 42.2895 50.9578 42.2928V49.8421C50.9583 49.8452 50.9598 49.8481 50.962 49.8504C50.9642 49.8526 50.9671 49.8541 50.9702 49.8545H57.2286C57.2316 49.854 57.2343 49.8525 57.2363 49.8502C57.2384 49.848 57.2396 49.8451 57.2398 49.8421V48.3263C57.2396 48.3233 57.2384 48.3204 57.2363 48.3182C57.2343 48.3159 57.2316 48.3144 57.2286 48.3139H52.6774C52.6759 48.314 52.6744 48.3139 52.673 48.3135C52.6716 48.3131 52.6703 48.3124 52.6691 48.3115C52.668 48.3106 52.667 48.3094 52.6663 48.3081C52.6656 48.3068 52.6651 48.3054 52.665 48.3039V48.3002ZM56.9764 20.7233L26.0821 17.3686H26.0746L17.6183 21.7918C17.6158 21.7926 17.6136 21.7942 17.6121 21.7963C17.6105 21.7985 17.6097 21.801 17.6097 21.8036C17.6097 21.8062 17.6105 21.8088 17.6121 21.8109C17.6136 21.813 17.6158 21.8146 17.6183 21.8154H54.9424L56.9752 20.7543C56.9792 20.7544 56.9832 20.7528 56.9862 20.7501C56.9892 20.7473 56.991 20.7435 56.9913 20.7394C56.9915 20.7374 56.9912 20.7353 56.9905 20.7333C56.9899 20.7314 56.9888 20.7296 56.9874 20.7281C56.986 20.7266 56.9843 20.7254 56.9824 20.7245C56.9805 20.7237 56.9785 20.7233 56.9764 20.7233ZM29.0019 1.22997C33.2829 1.23096 37.3883 2.93219 40.4152 5.95956C43.4421 8.98692 45.1427 13.0925 45.143 17.3736C45.143 17.6469 45.1368 17.9178 45.1231 18.1886L46.3656 18.3228C46.383 18.0085 46.3917 17.6929 46.3917 17.3736C46.3865 13.2635 44.9262 9.28794 42.2696 6.15183C39.6129 3.01573 35.9316 0.921637 31.8783 0.240823C27.825 -0.439991 23.6615 0.336457 20.126 2.43251C16.5906 4.52856 13.9115 7.8088 12.5638 11.6917H13.8896C15.0465 8.61842 17.1126 5.97079 19.8126 4.1017C22.5126 2.2326 25.7181 1.23085 29.0019 1.22997Z" fill="white"/>
<path d="M29.0019 33.5185C26.8811 33.5195 24.7809 33.1026 22.8212 32.2917C20.8616 31.4808 19.0809 30.2917 17.5809 28.7924C16.081 27.2932 14.8911 25.513 14.0793 23.5538C13.2674 21.5945 12.8496 19.4945 12.8496 17.3737C12.8496 17.0991 12.8571 16.827 12.8707 16.5549L11.6282 16.4207C11.6108 16.7363 11.6021 17.054 11.6021 17.3737C11.6065 21.4847 13.0667 25.4614 15.7238 28.5983C18.381 31.7353 22.0633 33.8297 26.1176 34.5102C30.1719 35.1907 34.3363 34.4132 37.872 32.3157C41.4076 30.2182 44.0862 26.9362 45.4325 23.0518H44.1105C42.9546 26.1254 40.8894 28.7737 38.1901 30.6437C35.4908 32.5137 32.2856 33.5165 29.0019 33.5185ZM31.9143 17.37H31.9205L40.378 12.9592C40.3796 12.9586 40.381 12.9577 40.3823 12.9566C40.3835 12.9555 40.3845 12.9542 40.3852 12.9526C40.3859 12.9511 40.3863 12.9495 40.3863 12.9479C40.3864 12.9462 40.3861 12.9445 40.3855 12.943C40.385 12.9412 40.384 12.9396 40.3827 12.9383C40.3814 12.937 40.3798 12.9361 40.378 12.9355H3.04889L1.01868 13.9966C1.01619 13.9974 1.01403 13.999 1.01249 14.0011C1.01096 14.0033 1.01013 14.0058 1.01013 14.0084C1.01013 14.011 1.01096 14.0136 1.01249 14.0157C1.01403 14.0178 1.01619 14.0194 1.01868 14.0202L31.9143 17.37Z" fill="white"/>
</g>
<defs>
<clipPath id="clip0_38_300">
<rect width="56.4795" height="50" fill="white" transform="translate(0.760254)"/>
</clipPath>
</defs>
</svg>
