<svg width="151" height="30" viewBox="0 0 151 30" fill="none" xmlns="http://www.w3.org/2000/svg">
<g clip-path="url(#clip0_38_397)">
<path d="M9.44214 4.94119C5.65162 7.44197 1.68287 9.13326 0.944846 9.43953L19.6609 22.5479C19.6704 22.5545 19.6781 22.5634 19.6834 22.5737C19.6887 22.584 19.6913 22.5954 19.6911 22.607V22.6079C19.6911 22.6196 19.6881 22.6312 19.6824 22.6415C19.6768 22.6518 19.6687 22.6606 19.6588 22.667L18.8234 23.217C18.8114 23.2247 18.7975 23.2288 18.7832 23.2286C18.769 23.2285 18.7552 23.2241 18.7434 23.2161L11.9085 18.5115C9.30049 16.7496 6.42368 17.1235 4.47035 17.748C2.5953 18.3465 1.21368 19.2631 0.871681 19.5022C1.03545 19.6171 15.0099 29.3832 15.1039 29.4496C15.4055 29.1663 17.4528 27.2968 21.7559 24.642C26.2934 21.8469 28.9686 20.8698 29.5875 20.663L10.8369 7.53257C10.8275 7.52598 10.8198 7.5172 10.8144 7.50698C10.8091 7.49676 10.8063 7.4854 10.8063 7.47387V7.47302C10.8065 7.46132 10.8094 7.44983 10.815 7.43953C10.8205 7.42923 10.8285 7.42043 10.8382 7.41389L11.6362 6.88473C11.6479 6.87702 11.6616 6.87292 11.6756 6.87292C11.6896 6.87292 11.7032 6.87702 11.7149 6.88473C11.74 6.90089 14.254 8.55135 18.7732 11.7332C23.0103 14.7142 28.9201 11.1393 29.7325 10.6204C29.5607 10.5017 15.3646 0.611295 15.2749 0.54834C14.9197 0.851207 12.3011 3.0606 9.44214 4.94119Z" fill="white"/>
<path d="M79.578 7.1338V11.3106H88.8971C88.916 11.3108 88.934 11.3184 88.9474 11.3317C88.9607 11.3451 88.9683 11.3631 88.9686 11.382C88.9686 11.4016 88.9605 11.4203 88.9456 11.4343L79.25 20.4872V24.0072H98.8381V19.8125H89.086C89.0716 19.8125 89.0575 19.8081 89.0456 19.8C89.0337 19.7919 89.0245 19.7804 89.0192 19.767C89.014 19.7536 89.0131 19.7389 89.0163 19.7249C89.0196 19.7109 89.0269 19.6981 89.0375 19.6883C89.0375 19.6883 98.8262 10.7023 98.8721 10.6593V7.13295C98.7313 7.1338 79.7192 7.1338 79.578 7.1338ZM71.7294 7.1338V17.8528C71.7294 19.4191 70.3546 20.354 68.0516 20.354C65.7154 20.354 64.3751 19.4271 64.3751 17.8107V7.13422H58.3607V18.1536C58.3607 20.497 58.9579 21.9662 60.2974 22.9161C61.7633 23.957 64.227 24.4415 68.0512 24.4415C71.8757 24.4415 74.3399 23.957 75.8058 22.9161C77.1457 21.9662 77.7429 20.4965 77.7429 18.1536V7.13422L71.7294 7.1338ZM113.994 7.1338V17.8094C113.994 19.4029 112.62 20.3536 110.318 20.3536C107.979 20.3536 106.639 19.4267 106.639 17.8103V7.1338H100.626V18.1531C100.626 20.4965 101.224 21.9658 102.564 22.9156C104.03 23.9565 106.494 24.441 110.318 24.441C114.141 24.441 116.605 23.9565 118.072 22.9156C119.412 21.9654 120.01 20.4961 120.01 18.1531V7.1338H113.994ZM144.328 7.1338V24.008H150.61V7.1338H144.328ZM134.979 7.1338C134.938 7.16783 128.169 12.9904 128.169 12.9904C128.158 12.9993 128.145 13.0051 128.132 13.007C128.118 13.0089 128.104 13.0068 128.092 13.001C128.079 12.9955 128.069 12.9864 128.061 12.9748C128.054 12.9632 128.05 12.9497 128.05 12.9359V7.1338H121.769V24.008H128.05V18.0451C128.05 18.017 128.066 17.9902 128.094 17.9796C128.107 17.9742 128.121 17.9726 128.134 17.975C128.148 17.9774 128.161 17.9838 128.171 17.9932C128.171 17.9932 134.454 23.9684 134.495 24.008H142.912L133.658 15.4027C133.65 15.3961 133.644 15.388 133.641 15.379C133.637 15.3699 133.635 15.3602 133.635 15.3503V15.3486C133.635 15.3286 133.644 15.3091 133.66 15.2955L143.211 7.13337L134.979 7.1338ZM36.6747 12.2166C36.6747 14.0512 37.3842 15.2959 38.9074 16.1322C40.3086 16.9017 42.4142 17.3811 45.9482 17.7358L46.6161 17.7933C48.1479 17.9154 49.8838 18.0532 49.8838 19.3085C49.8838 20.1681 48.951 20.6429 47.2571 20.6429C46.4298 20.6429 45.2153 20.4336 44.1978 18.6513H36.3152C36.3331 20.6054 37.0571 21.9466 38.5956 22.8625C40.3316 23.8966 43.1603 24.3985 47.2444 24.3985C56.3525 24.3985 57.0603 20.1562 57.0603 18.8563C57.0603 15.8412 54.3737 14.0308 48.8459 13.323L47.9777 13.2133C45.4552 12.8998 43.4628 12.6522 43.4628 11.767C43.4628 11.4246 43.5759 11.1379 43.7988 10.9154C44.3816 10.333 45.5833 10.3347 46.0963 10.3352H46.1444C46.6165 10.3352 48.2334 10.4764 49.3381 12.257H56.4818C56.4312 8.69365 52.6811 6.65015 46.1682 6.65015C37.5998 6.64972 36.6747 10.5423 36.6747 12.2166Z" fill="white"/>
</g>
<defs>
<clipPath id="clip0_38_397">
<rect width="150" height="29.16" fill="white" transform="translate(0.714294 0.419922)"/>
</clipPath>
</defs>
</svg>
