<svg width="181" height="24" viewBox="0 0 181 24" fill="none" xmlns="http://www.w3.org/2000/svg">
<path d="M154.405 9.5771V23.7264H158.927V14.2935H175.467V23.7264H179.99V9.5771H154.405ZM158.411 4.98988H175.855C178.31 4.53762 180.055 2.34092 180.571 0.273438H153.694C154.211 2.34092 156.02 4.47301 158.411 4.98988ZM140.643 23.7264C142.904 22.7573 144.132 21.0775 144.649 19.1392H124.297V0.338046H119.71V23.7264H140.643ZM85.7903 4.92527H101.943C104.398 4.21457 106.401 2.34092 106.917 0.338046H81.3323V14.1643H102.266V19.01H85.8549C83.2706 19.7207 81.0739 21.4651 79.9755 23.7264H106.788V9.5771H85.8549L85.7903 4.92527ZM45.9913 4.98988H63.4357C65.8908 4.53762 67.6999 2.34092 68.1521 0.273438H41.2103C41.7272 2.34092 43.5362 4.47301 45.9913 4.98988ZM45.9913 14.2289H63.4357C65.8908 13.7767 67.6999 11.58 68.1521 9.51249H41.2103C41.7272 11.58 43.5362 13.7121 45.9913 14.2289ZM45.9913 23.7264H63.4357C65.8908 23.2742 67.6999 21.0775 68.1521 19.01H41.2103C41.7272 21.0775 43.5362 23.2742 45.9913 23.7264Z" fill="white"/>
<path d="M0.571411 0.338046C1.08828 2.40553 2.89733 4.47301 5.28785 4.98988H12.6532L13.0409 5.11909V23.6618H17.6281V5.11909L18.0158 4.98988H25.3812C27.8363 4.34379 29.5807 2.40553 30.0976 0.338046V0.273438L0.571411 0.338046Z" fill="white"/>
</svg>
