<svg width="150" height="25" viewBox="0 0 150 25" fill="none" xmlns="http://www.w3.org/2000/svg">
<path d="M139.559 0H137.616V11.7069H139.559V0Z" fill="#0C2848"/>
<path d="M150 0V1.94112H146.731V11.7069H144.787V1.94112H141.533V0H150Z" fill="#0C2848"/>
<path d="M134.12 20.2839V24.2414H116.839V0.34609H120.802V20.2839H134.12Z" fill="#0C2848"/>
<path d="M101.035 0C94.2547 0 88.7254 5.5224 88.7254 12.2937C88.7254 19.0651 94.2397 24.5875 101.035 24.5875C107.829 24.5875 113.344 19.0801 113.344 12.2937C113.344 5.50735 107.814 0 101.035 0ZM101.035 20.6149C96.4393 20.6149 92.6878 16.8832 92.6878 12.2787C92.6878 7.67418 96.4243 3.94242 101.035 3.94242C105.645 3.94242 109.381 7.67418 109.381 12.2787C109.381 16.8832 105.645 20.6149 101.035 20.6149Z" fill="#0C2848"/>
<path d="M87.716 20.2839V24.2414H70.4199V10.6536H84.6424V14.611H74.3974V20.2839H87.716Z" fill="#0C2848"/>
<path d="M14.4335 10.3075H3.96244V0.34609H0V24.2414H3.96244V14.28H14.4335V24.2414H18.3959V0.34609H14.4335V10.3075Z" fill="#0C2848"/>
<path d="M71.8059 0.34609C66.6382 0.34609 62.4648 4.52927 62.4648 9.67548V17.0186L52.2047 0.34609H48.0313V24.2414H51.9938V7.5538L62.2539 24.2414H66.4273V9.67548C66.4273 6.71114 68.8379 4.30356 71.8059 4.30356H87.7009V0.34609H71.8059Z" fill="#0C2848"/>
<path d="M30.7202 0.34609L20.4148 24.2414H24.7389L33.2212 4.55936L41.6884 24.2414H46.0125L35.7071 0.34609H30.7202Z" fill="#0C2848"/>
</svg>
