<svg width="95" height="27" viewBox="0 0 95 27" fill="none" xmlns="http://www.w3.org/2000/svg">
<path d="M0.794922 26V0.546875H5.36523V22.1328H16.6152V26H0.794922ZM41.9629 13.2734C41.9629 21.5 36.9707 26.3516 30.291 26.3516C23.6113 26.3516 18.6191 21.4648 18.6191 13.2734C18.6191 5.04688 23.6113 0.195312 30.291 0.195312C36.9707 0.195312 41.9629 5.04688 41.9629 13.2734ZM37.3574 13.2734C37.3574 7.47266 34.4395 4.30859 30.291 4.30859C26.1426 4.30859 23.2246 7.47266 23.2246 13.2734C23.2246 19.0742 26.1426 22.2383 30.291 22.2383C34.4395 22.2383 37.3574 19.0742 37.3574 13.2734ZM63.0918 8.66797C62.2832 5.96094 60.1738 4.30859 57.0801 4.30859C52.9668 4.30859 50.0137 7.50781 50.0137 13.2383C50.0137 19.0391 52.9316 22.2383 57.1855 22.2383C61.0176 22.2383 63.4785 19.918 63.5488 16.2969H57.6426V12.6758H67.9785V15.7344C67.9785 22.2734 63.4785 26.3516 57.1855 26.3516C50.1543 26.3516 45.4082 21.3594 45.4082 13.2734C45.4082 5.11719 50.3652 0.195312 57.0449 0.195312C62.6699 0.195312 66.9941 3.67578 67.7676 8.66797H63.0918ZM94.8379 13.2734C94.8379 21.5 89.8457 26.3516 83.166 26.3516C76.4863 26.3516 71.4941 21.4648 71.4941 13.2734C71.4941 5.04688 76.4863 0.195312 83.166 0.195312C89.8457 0.195312 94.8379 5.04688 94.8379 13.2734ZM90.2324 13.2734C90.2324 7.47266 87.3145 4.30859 83.166 4.30859C79.0176 4.30859 76.0996 7.47266 76.0996 13.2734C76.0996 19.0742 79.0176 22.2383 83.166 22.2383C87.3145 22.2383 90.2324 19.0742 90.2324 13.2734Z" fill="white"/>
</svg>
